HIERARCHY
ROOT Hips
{
	OFFSET 0.000000 0.000000 0.000000
	CHANNELS 6 Xposition Yposition Zposition Zrotation Yrotation Xrotation 
	JOINT LeftUpLeg_virtual
	{
		OFFSET 0.000000 0.000000 0.000000
		CHANNELS 3 Zrotation Yrotation Xrotation
		JOINT LeftUpLeg
		{
			OFFSET 10.205400 -3.823500 0.155100
			CHANNELS 3 Zrotation Yrotation Xrotation
			JOINT LeftLeg
			{
				OFFSET 0.708757 -12.982077 0.567790
				CHANNELS 3 Zrotation Yrotation Xrotation
				JOINT LeftFoot
				{
					OFFSET -0.708756 -10.717838 -2.184338
					CHANNELS 3 Zrotation Yrotation Xrotation
					JOINT LeftToeBase
					{
						OFFSET 0.108149 -7.191104 7.560241
						CHANNELS 3 Zrotation Yrotation Xrotation
						JOINT LeftToe_End
						{
							OFFSET 0.070230 0.081724 4.490308
							CHANNELS 3 Zrotation Yrotation Xrotation
							End Site
							{
								OFFSET 0.000000 0.000000 0.000000
							}
						}
					}
				}
			}
		}
	}
	JOINT RightUpLeg_virtual
	{
		OFFSET 0.000000 0.000000 0.000000
		CHANNELS 3 Zrotation Yrotation Xrotation
		JOINT RightUpLeg
		{
			OFFSET -10.205400 -3.823500 0.005500
			CHANNELS 3 Zrotation Yrotation Xrotation
			JOINT RightLeg
			{
				OFFSET -0.708756 -12.982134 0.610632
				CHANNELS 3 Zrotation Yrotation Xrotation
				JOINT RightFoot
				{
					OFFSET 0.708754 -10.717769 -1.945823
					CHANNELS 3 Zrotation Yrotation Xrotation
					JOINT RightToeBase
					{
						OFFSET -0.108140 -7.191069 7.372968
						CHANNELS 3 Zrotation Yrotation Xrotation
						JOINT RightToe_End
						{
							OFFSET -0.070227 0.081735 4.479403
							CHANNELS 3 Zrotation Yrotation Xrotation
							End Site
							{
								OFFSET 0.000000 0.000000 0.000000
							}
						}
					}
				}
			}
		}
	}
	JOINT Spine_virtual
	{
		OFFSET 0.000000 0.000000 0.000000
		CHANNELS 3 Zrotation Yrotation Xrotation
		JOINT Spine
		{
			OFFSET 0.000000 6.876099 0.125700
			CHANNELS 3 Zrotation Yrotation Xrotation
			JOINT Spine1
			{
				OFFSET 0.000000 5.730043 0.104720
				CHANNELS 3 Zrotation Yrotation Xrotation
				JOINT Spine1_split
				{
					OFFSET 0.000000 5.730043 0.104720
					CHANNELS 3 Zrotation Yrotation Xrotation
					JOINT Spine2
					{
						OFFSET 0.000000 5.730043 0.104720
						CHANNELS 3 Zrotation Yrotation Xrotation
						JOINT Neck_virtual
						{
							OFFSET 0.000000 0.000000 0.000000
							CHANNELS 3 Zrotation Yrotation Xrotation
							JOINT Neck
							{
								OFFSET 0.000000 10.314075 0.188496
								CHANNELS 3 Zrotation Yrotation Xrotation
								JOINT Head
								{
									OFFSET 0.000000 7.643700 -2.377400
									CHANNELS 3 Zrotation Yrotation Xrotation
									JOINT HeadTop_End
									{
										OFFSET 0.000000 43.788605 -13.619600
										CHANNELS 3 Zrotation Yrotation Xrotation
										End Site
										{
											OFFSET 0.000000 0.000000 0.000000
										}
									}
								}
							}
						}
						JOINT LeftShoulder_virtual
						{
							OFFSET 0.000000 0.000000 0.000000
							CHANNELS 3 Zrotation Yrotation Xrotation
							JOINT LeftShoulder
							{
								OFFSET 2.196100 4.412489 0.087492
								CHANNELS 3 Zrotation Yrotation Xrotation
								JOINT LeftShoulder_split
								{
									OFFSET 2.196100 4.412489 0.087492
									CHANNELS 3 Zrotation Yrotation Xrotation
									JOINT LeftArm
									{
										OFFSET 8.771219 -2.981674 -0.026999
										CHANNELS 3 Zrotation Yrotation Xrotation
										JOINT LeftForeArm
										{
											OFFSET 8.512804 0.000000 -0.000000
											CHANNELS 3 Zrotation Yrotation Xrotation
											JOINT LeftHand
											{
												OFFSET 18.484802 0.000000 -0.000000
												CHANNELS 3 Zrotation Yrotation Xrotation
												End Site
												{
													OFFSET 0.000000 0.000000 0.000000
												}
											}
										}
									}
								}
							}
						}
						JOINT RightShoulder_virtual
						{
							OFFSET 0.000000 0.000000 0.000000
							CHANNELS 3 Zrotation Yrotation Xrotation
							JOINT RightShoulder
							{
								OFFSET -2.196100 4.412496 0.070690
								CHANNELS 3 Zrotation Yrotation Xrotation
								JOINT RightShoulder_split
								{
									OFFSET -2.196100 4.412496 0.070690
									CHANNELS 3 Zrotation Yrotation Xrotation
									JOINT RightArm
									{
										OFFSET -8.771282 -2.981682 -0.094208
										CHANNELS 3 Zrotation Yrotation Xrotation
										JOINT RightForeArm
										{
											OFFSET -8.494598 0.000000 0.000000
											CHANNELS 3 Zrotation Yrotation Xrotation
											JOINT RightHand
											{
												OFFSET -18.483803 0.000000 0.000001
												CHANNELS 3 Zrotation Yrotation Xrotation
												End Site
												{
													OFFSET 0.000000 0.000000 0.000000
												}
											}
										}
									}
								}
							}
						}
					}
				}
			}
		}
	}
}
MOTION
Frames: 9
Frame Time: 0.033333
2.541418 24.283131 56.860687 -0.036494 -0.709435 1.013562 -0.936365 -3.031749 3.914948 35.834021 27.272057 49.970091 2.225395 12.061878 29.131973 -31.948633 8.111341 -50.732541 -0.880601 -12.429334 -16.818076 0.000000 0.000000 0.000000 -2.741749 -4.119731 5.800713 -11.253875 -5.495397 -76.122192 1.238126 -8.914870 53.416150 27.704646 -3.015083 9.368670 -26.940541 1.231055 2.036756 0.000000 0.000000 0.000000 -0.015770 -1.233704 1.997887 3.279903 -12.013839 1.093606 -1.204173 -5.990965 2.552190 0.089745 -0.939388 0.128458 -0.051090 0.101592 0.117364 0.806793 -5.140598 5.853049 11.099332 17.294239 15.165267 -0.623489 12.875300 3.103085 0.000000 0.000000 0.000000 -0.145744 -5.835226 4.545977 -11.354554 -12.510462 4.546961 -7.632843 -0.421943 -4.284491 3.157979 -31.657753 -57.244061 23.154128 -51.265931 -31.865889 0.000000 0.000000 0.000000 0.407865 -6.455236 3.925183 -14.050457 0.489339 -0.645237 -3.217188 -8.725510 -10.209086 24.008593 55.655339 -13.676426 -0.285098 3.566017 5.074806 0.000000 0.000000 0.000000 
2.239827 24.250965 58.148209 -0.297711 -0.107419 0.623484 -1.960260 -8.609240 5.110687 37.808492 28.455190 54.005070 -0.681810 13.053276 21.888787 -29.157675 8.459699 -45.500893 -1.905266 -11.376466 -24.618290 0.000000 0.000000 0.000000 -4.577473 -9.358558 7.253386 -10.515316 1.477385 -75.253918 -1.400659 -10.225048 57.109541 22.014282 -3.323197 0.724354 -26.725538 3.555058 6.274675 0.000000 0.000000 0.000000 -1.733089 -6.794642 3.479388 4.849903 -13.581026 0.918546 -0.878490 -8.836305 3.403651 0.125001 -1.028988 -0.008208 -0.019430 0.013924 0.004850 1.128038 -7.997019 6.272725 10.132682 20.259441 11.616641 1.784174 20.397308 8.864341 0.000000 0.000000 0.000000 -0.296125 -8.725030 4.767659 -14.951001 -20.697575 5.794028 -6.008710 -1.382043 -3.570796 6.935117 -36.481352 -48.201963 8.721205 -40.109255 -15.876216 0.000000 0.000000 0.000000 0.976318 -9.257801 4.416443 -6.595400 -3.909764 -0.028269 -3.444280 -7.606568 -8.099504 22.353442 43.145987 -9.395076 1.532526 -3.939917 3.004882 0.000000 0.000000 0.000000 
2.028194 24.249649 59.459461 -0.068364 -0.195414 0.129060 -4.269756 -13.813602 7.213655 40.026298 28.822008 54.615135 -3.741340 12.660971 19.087420 -27.963430 10.816041 -36.191588 -5.529095 -9.762497 -30.318431 0.000000 0.000000 0.000000 -6.161274 -13.872028 8.479008 -9.274479 6.061258 -74.654152 -2.760051 -10.763781 60.487780 17.695553 -4.964168 -1.843624 -22.598885 6.599045 7.335137 0.000000 0.000000 0.000000 -3.609349 -11.459196 5.747289 5.976208 -14.257740 0.670775 -0.972078 -10.924159 4.146181 0.025815 -0.839677 -0.049085 -0.008772 0.051104 0.016769 1.440818 -10.200452 6.672527 8.958838 22.492195 7.216768 3.582374 26.261650 12.970966 0.000000 0.000000 0.000000 -0.284804 -10.940198 4.839245 -17.101211 -27.555124 7.126258 -4.129354 -2.441318 -2.329889 7.067475 -40.369416 -39.194614 1.281731 -29.812082 -5.101746 0.000000 0.000000 0.000000 1.540748 -11.375949 4.407828 -0.131367 -7.342471 -0.441990 -3.635179 -6.381091 -6.000092 19.102661 32.681721 -7.354988 2.845946 -3.768172 0.131719 0.000000 0.000000 0.000000 
1.905600 24.266893 60.866577 -0.144220 0.029776 0.040551 -6.673663 -19.570418 9.413144 42.580161 28.526596 52.024069 -6.410519 12.866005 22.554157 -23.271581 15.640966 -23.728571 -7.986124 -10.320751 -31.369461 0.000000 0.000000 0.000000 -7.638042 -18.832314 9.704744 -8.150537 9.632331 -74.373588 -2.978896 -11.032303 62.383970 17.991342 -5.273896 -2.455885 -21.704386 8.176744 13.653278 0.000000 0.000000 0.000000 -5.576510 -16.167114 8.545304 7.154248 -14.297141 0.495715 -0.991547 -12.398402 4.532633 0.087495 -0.636330 -0.072270 0.000854 -0.040268 0.031457 1.378924 -11.662400 7.021806 7.710447 24.125604 2.445224 4.341783 30.263346 14.736352 0.000000 0.000000 0.000000 -0.533229 -12.244255 4.594061 -17.936895 -32.468855 8.260382 -2.523534 -3.028898 -0.907213 4.818983 -43.441646 -33.184290 -2.536103 -22.884494 3.627376 0.000000 0.000000 0.000000 1.822246 -12.618547 4.133228 4.741361 -9.224153 -1.147745 -3.513287 -5.291365 -3.804429 14.982696 24.565822 -7.396875 3.698634 1.422274 -2.450812 0.000000 0.000000 0.000000 
1.857135 24.304628 62.353848 -0.065523 0.073214 -0.226598 -9.592321 -24.846628 11.832904 45.125397 27.798486 46.262903 -8.832946 13.505389 30.833919 -17.556557 19.874334 -14.013822 -12.152156 -10.428943 -27.457804 0.000000 0.000000 0.000000 -9.364132 -23.552946 10.801335 -6.476491 11.785172 -72.785283 -2.284294 -10.920802 63.308962 20.277937 -4.875264 -3.588493 -22.414651 6.136499 17.033744 0.000000 0.000000 0.000000 -7.946593 -20.821543 11.573398 7.769971 -13.543013 0.733630 -1.071456 -13.074026 4.601037 0.152953 -0.246277 0.058110 0.060460 -0.005031 -0.043372 1.290691 -12.294366 6.936976 6.715496 25.002186 -1.839551 3.568155 32.774031 13.794654 0.000000 0.000000 0.000000 -0.642211 -13.003039 4.004545 -17.471556 -35.624136 8.954306 -1.321650 -2.713044 0.459538 1.633431 -45.774490 -31.900023 -4.264442 -19.145042 11.372261 0.000000 0.000000 0.000000 2.025619 -13.181936 3.554306 8.221222 -9.613496 -1.951901 -3.232887 -4.821019 -1.495273 10.055758 18.940255 -8.485815 3.783891 8.804776 -5.305312 0.000000 0.000000 0.000000 
1.861548 24.477987 63.964024 -0.146057 -0.014059 -0.284149 -12.504003 -29.009340 14.029454 47.836128 26.892704 37.558281 -10.589478 13.600205 42.905814 -13.637626 22.171313 -8.020790 -15.848455 -10.150850 -24.394034 0.000000 0.000000 0.000000 -12.205311 -27.561087 12.408120 -4.615207 13.316965 -69.010100 -0.981415 -12.166513 61.456102 23.666382 -4.727477 -5.598422 -18.068777 -2.953805 19.160241 0.000000 0.000000 0.000000 -10.558754 -25.674468 14.204905 8.064982 -12.230456 1.253862 -0.974968 -13.133072 4.364776 0.167541 0.111753 0.165276 -0.009285 -0.023851 -0.131079 1.046989 -12.369656 6.498540 5.928687 25.397719 -5.360253 1.781405 33.948663 11.084951 0.000000 0.000000 0.000000 -0.859422 -13.040038 3.186490 -16.080330 -37.014124 9.241786 -0.051705 -1.918002 1.736144 -1.157948 -48.449482 -34.679152 -4.745591 -16.990528 18.423044 0.000000 0.000000 0.000000 2.255077 -13.042028 2.780926 10.043369 -8.905065 -2.292137 -2.454108 -5.190393 0.232178 5.175138 15.113487 -10.876911 3.278174 15.102634 -8.041119 0.000000 0.000000 0.000000 
1.824707 24.849848 65.736244 -0.311514 -0.599236 -0.795820 -13.143429 -33.651089 14.295075 51.046167 26.271956 26.752432 -11.870890 18.021845 57.681651 -16.615528 24.414658 -7.428109 -22.724640 -5.092589 -19.549209 0.000000 0.000000 0.000000 -14.911199 -30.708394 14.139509 -2.056714 13.700061 -62.950514 0.620078 -13.345970 58.363072 22.437583 -2.336542 -8.263242 -25.209257 -3.851895 20.399685 0.000000 0.000000 0.000000 -13.181213 -30.033421 16.592602 7.750682 -10.639945 2.090938 -0.764760 -12.678918 3.783070 0.191545 0.461735 0.344955 0.037149 0.110124 -0.154111 0.931794 -11.856950 5.468672 5.463901 25.384997 -7.184154 -0.748324 33.854201 7.268788 0.000000 0.000000 0.000000 -1.178945 -12.741654 2.372488 -13.955491 -36.962098 9.250522 1.060979 -0.782045 2.598980 -0.664804 -52.012266 -41.517909 -4.252042 -14.645198 23.265622 0.000000 0.000000 0.000000 2.514440 -12.358805 1.964508 10.650895 -7.487025 -2.439799 -1.947552 -6.061249 2.368827 0.651207 12.614154 -15.192241 2.287595 18.922602 -10.549632 0.000000 0.000000 0.000000 
1.650168 25.450890 67.641975 -0.571670 -1.344005 -1.904776 -14.008062 -37.579192 14.370086 54.270269 25.761655 14.342636 -12.738312 18.225458 68.981407 -17.867811 22.873634 -6.113984 -24.259462 -4.742489 -23.497869 0.000000 0.000000 0.000000 -16.194319 -33.414904 15.540164 -0.360172 12.190898 -56.027765 1.789661 -13.064435 55.807389 22.137254 0.455273 -11.961431 -20.300700 -3.791263 21.262597 0.000000 0.000000 0.000000 -15.219903 -33.753593 18.230892 6.746856 -9.019442 3.252150 -0.501249 -11.927919 2.903013 0.031862 0.657055 0.218734 0.055570 0.233528 -0.082746 1.068151 -11.107429 3.892814 5.391491 25.251935 -6.869315 -3.484010 32.816047 3.515223 0.000000 0.000000 0.000000 -1.643189 -12.129682 1.813031 -11.067596 -35.652030 9.015731 2.167045 0.134657 2.432300 5.266124 -55.860566 -51.618837 -3.342972 -12.433347 25.519207 0.000000 0.000000 0.000000 2.949104 -11.339934 1.283392 9.875854 -6.035409 -2.319134 -2.225855 -6.711068 4.059273 -3.003089 11.454175 -22.341470 1.200508 21.230424 -11.997860 0.000000 0.000000 0.000000 
1.318491 26.150171 69.650528 -0.882693 -2.003564 -2.034740 -14.470695 -40.514858 14.377255 54.506009 24.720372 0.793292 -12.518107 15.992859 75.203388 -19.751422 22.134971 -6.760329 -24.607889 -4.180823 -24.264218 0.000000 0.000000 0.000000 -15.513605 -35.839092 15.463367 -0.904815 11.012119 -49.798431 2.373524 -10.876495 53.778929 23.595158 3.392635 -17.012534 -13.637655 -3.480200 19.984961 0.000000 0.000000 0.000000 -15.677605 -37.328090 17.775957 5.213361 -7.562958 3.863317 -0.211605 -10.990957 2.257231 -0.168288 0.791396 0.351438 0.071403 0.394437 -0.148677 1.241404 -10.185951 2.006308 5.603723 24.953097 -4.781370 -6.087192 30.928135 0.791375 0.000000 0.000000 0.000000 -1.597498 -11.254053 1.336836 -7.193495 -33.058495 8.306490 3.129507 0.566187 1.884037 17.957126 -58.614942 -64.489540 -2.774613 -11.325999 25.153505 0.000000 0.000000 0.000000 3.440966 -10.179569 0.419527 7.393995 -5.095599 -2.292521 -2.565998 -6.708185 4.345333 -5.913604 11.486569 -33.691387 -0.037136 23.903463 -12.891697 0.000000 0.000000 0.000000 
